<?xml version="1.0" standalone="no"?>
<!DOCTYPE svg PUBLIC "-//W3C//DTD SVG 20010904//EN"
 "http://www.w3.org/TR/2001/REC-SVG-20010904/DTD/svg10.dtd">
<svg version="1.0" xmlns="http://www.w3.org/2000/svg"
 width="30px" height="100px" viewBox="0 0 48.000000 46.000000"
 preserveAspectRatio="xMidYMid meet">

<g transform="translate(0.000000,46.000000) scale(0.100000,-0.100000)"
fill="#000000" stroke="none">
<path d="M166 369 c-15 -12 -26 -30 -26 -45 0 -17 -5 -24 -20 -24 -11 0 -29
-9 -40 -20 -17 -17 -20 -33 -20 -105 l0 -85 150 0 150 0 0 105 0 105 -40 0
c-36 0 -40 3 -40 24 0 27 -42 66 -70 66 -10 0 -29 -9 -44 -21z m78 -31 c24
-34 20 -38 -34 -38 -27 0 -50 3 -50 8 0 18 33 52 50 52 10 0 26 -10 34 -22z
m-104 -88 c0 -11 5 -20 10 -20 6 0 10 9 10 20 0 17 7 20 50 20 43 0 50 -3 50
-20 0 -11 5 -20 10 -20 6 0 10 9 10 20 0 15 7 20 25 20 24 0 25 -2 25 -75 l0
-75 -120 0 -120 0 0 68 c0 74 3 82 32 82 11 0 18 -7 18 -20z"/>
</g>
</svg>
