<?xml version="1.0" standalone="no"?>
<!DOCTYPE svg PUBLIC "-//W3C//DTD SVG 20010904//EN"
 "http://www.w3.org/TR/2001/REC-SVG-20010904/DTD/svg10.dtd">
<svg version="1.0" xmlns="http://www.w3.org/2000/svg"
 width="50px" height="40px" viewBox="0 0 514.000000 402.000000"
 preserveAspectRatio="xMidYMid meet">

<g transform="translate(0.000000,402.000000) scale(0.100000,-0.100000)"
fill="#000000" stroke="none">
<path d="M2450 3794 c-433 -35 -772 -176 -1094 -458 -140 -123 -312 -347 -399
-521 -247 -497 -247 -1103 0 -1600 52 -103 173 -282 257 -377 271 -309 654
-519 1066 -584 139 -22 401 -22 540 0 411 65 788 270 1061 579 87 99 209 276
262 382 272 545 244 1210 -71 1725 -274 447 -742 760 -1247 834 -107 15 -301
26 -375 20z m361 -64 c376 -57 715 -233 985 -511 149 -154 243 -292 326 -474
114 -252 158 -453 158 -730 0 -277 -44 -478 -158 -730 -83 -182 -177 -320
-326 -474 -271 -279 -602 -451 -991 -512 -103 -16 -407 -16 -510 0 -387 61
-718 232 -986 507 -186 192 -297 369 -394 628 -128 344 -128 818 0 1162 97
259 208 436 394 628 298 307 655 475 1106 520 66 7 316 -2 396 -14z"/>
<path d="M2345 3689 c-188 -26 -395 -89 -556 -170 -198 -99 -426 -286 -564
-464 -480 -616 -480 -1463 0 -2080 195 -251 493 -460 798 -560 190 -62 306
-79 527 -79 221 0 337 17 527 79 305 100 603 309 798 560 480 616 480 1464 0
2080 -240 309 -597 529 -989 611 -137 29 -415 41 -541 23z m97 -810 c191 -41
349 -198 388 -386 17 -79 7 -232 -19 -313 -57 -179 -208 -336 -381 -396 -342
-119 -679 125 -680 494 -1 281 186 535 436 596 73 18 186 20 256 5z m-742 -29
c0 -5 -19 -10 -42 -10 -84 0 -78 48 -78 -662 l0 -628 453 0 c266 0 478 4 516
11 85 13 154 44 219 97 30 24 56 41 59 39 2 -3 -26 -49 -63 -101 l-67 -96
-669 0 c-439 0 -668 3 -668 10 0 6 14 10 32 10 17 0 40 7 50 17 17 15 18 48
18 641 0 696 3 662 -67 662 -18 0 -33 5 -33 10 0 6 63 10 170 10 107 0 170 -4
170 -10z m1750 -15 c170 -54 260 -154 260 -291 0 -33 -7 -82 -16 -108 -23 -67
-101 -148 -181 -188 l-65 -32 54 -19 c153 -57 232 -167 231 -324 0 -72 -4 -91
-32 -147 -49 -100 -135 -163 -276 -202 -75 -21 -475 -33 -475 -15 0 6 15 11
34 11 69 0 66 -27 66 662 0 605 0 618 -20 638 -11 11 -33 20 -50 20 -16 0 -30
5 -30 11 0 19 433 6 500 -16z m-1960 -1630 c0 -41 2 -45 25 -45 14 0 25 -4 25
-10 0 -5 -18 -10 -40 -10 l-40 0 0 55 c0 42 3 55 15 55 11 0 15 -12 15 -45z
m102 3 c2 -30 8 -43 18 -43 10 0 16 13 18 43 4 57 32 60 32 3 0 -65 -52 -95
-84 -49 -16 23 -21 69 -9 81 15 15 22 5 25 -35z m130 23 c11 -18 12 -18 29 3
23 28 36 14 16 -18 -14 -20 -14 -26 -2 -42 18 -24 19 -34 1 -34 -8 0 -17 8
-21 18 -6 16 -7 16 -19 0 -22 -30 -41 -22 -21 8 15 23 15 27 1 49 -19 28 -20
35 -6 35 5 0 15 -9 22 -19z m118 -20 c0 -24 5 -41 14 -44 20 -8 26 2 26 45 0
27 4 38 15 38 18 0 21 -60 5 -91 -12 -21 -52 -25 -68 -6 -15 17 -25 64 -18 82
11 29 26 15 26 -24z m170 29 c14 -8 18 -20 17 -55 -1 -25 -4 -45 -6 -45 -3 0
-13 7 -23 17 -17 15 -18 15 -18 0 0 -10 -7 -17 -15 -17 -12 0 -15 13 -15 55 0
49 2 55 21 55 11 0 29 -4 39 -10z m83 -16 l13 -25 12 25 c12 27 32 35 32 14 0
-7 -7 -22 -15 -32 -8 -11 -15 -30 -15 -43 0 -14 -6 -23 -15 -23 -9 0 -15 9
-15 23 -1 12 -7 33 -15 47 -17 30 -18 40 -5 40 5 0 15 -12 23 -26z m167 6 c24
-24 25 -38 4 -68 -34 -49 -106 -6 -85 51 16 40 50 48 81 17z m80 -18 c0 -43 6
-53 26 -45 9 3 14 20 14 45 0 27 4 38 13 35 16 -5 14 -72 -3 -92 -16 -19 -44
-19 -64 1 -21 21 -22 94 -1 94 11 0 15 -11 15 -38z m188 21 c2 -7 -3 -13 -12
-13 -12 0 -16 -10 -16 -40 0 -29 -4 -40 -15 -40 -11 0 -15 11 -15 40 0 29 -4
40 -15 40 -8 0 -15 7 -15 16 0 12 9 14 42 12 23 -2 43 -9 46 -15z m60 -31 c3
-37 6 -42 28 -42 13 0 24 -4 24 -10 0 -5 -18 -10 -40 -10 l-40 0 0 56 c0 67
23 72 28 6z m152 33 c0 -8 -10 -16 -22 -16 l-23 -2 23 -4 c27 -5 29 -33 2 -33
-11 0 -20 -4 -20 -10 0 -5 11 -10 25 -10 14 0 25 -4 25 -10 0 -5 -18 -10 -40
-10 l-40 0 0 55 0 55 35 0 c24 0 35 -5 35 -15z m120 0 c0 -8 -7 -15 -15 -15
-11 0 -15 -11 -15 -40 0 -29 -4 -40 -15 -40 -11 0 -15 11 -15 40 0 29 -4 40
-15 40 -16 0 -20 12 -8 23 3 4 24 7 45 7 27 0 38 -4 38 -15z m108 3 c6 -7 9
-31 9 -53 -2 -39 -3 -40 -39 -43 l-38 -3 0 55 c0 55 1 56 29 56 16 0 33 -6 39
-12z m112 2 c14 -8 18 -20 17 -55 -1 -25 -4 -45 -6 -45 -3 0 -13 7 -23 17 -17
15 -18 15 -18 0 0 -10 -7 -17 -15 -17 -12 0 -15 13 -15 55 0 49 2 55 21 55 11
0 29 -4 39 -10z m128 -42 c14 -36 16 -54 9 -57 -6 -2 -13 1 -15 8 -5 14 -42
15 -42 1 0 -5 -7 -10 -16 -10 -11 0 -14 6 -8 22 15 48 35 88 43 88 5 0 18 -24
29 -52z m94 20 l27 -33 1 33 c0 17 5 32 10 32 6 0 10 -25 10 -55 0 -61 -9 -68
-39 -29 l-21 27 0 -27 c0 -16 -5 -26 -15 -26 -12 0 -15 13 -15 55 0 30 3 55 8
55 4 0 19 -14 34 -32z m168 12 c24 -24 25 -38 4 -68 -11 -15 -25 -22 -50 -22
l-34 0 0 48 c0 27 3 52 7 55 13 14 54 6 73 -13z m104 14 c24 -9 19 -24 -6 -24
-21 -1 -21 -2 5 -16 20 -11 27 -22 25 -37 -2 -18 -10 -22 -37 -22 -20 0 -36 6
-39 14 -3 10 2 12 22 7 14 -3 26 -2 26 3 0 5 -11 12 -25 15 -29 8 -34 40 -7
55 21 13 17 12 36 5z"/>
<path d="M2147 2810 c-277 -88 -400 -427 -255 -704 42 -80 156 -193 230 -229
202 -97 426 -35 552 151 111 165 119 354 23 537 -39 73 -134 170 -203 207
-108 58 -240 73 -347 38z"/>
<path d="M3170 2530 l0 -302 108 4 c96 3 113 7 161 33 93 51 131 125 131 254
0 181 -118 296 -316 309 l-84 5 0 -303z"/>
<path d="M3170 1865 l0 -338 83 7 c219 18 311 91 338 267 34 220 -101 369
-356 395 l-65 7 0 -338z"/>
<path d="M1980 1210 c0 -5 5 -10 10 -10 6 0 10 5 10 10 0 6 -4 10 -10 10 -5 0
-10 -4 -10 -10z"/>
<path d="M2204 1206 c-8 -21 13 -46 32 -39 20 8 13 47 -9 51 -9 2 -20 -4 -23
-12z"/>
<path d="M2920 1210 c0 -5 4 -10 9 -10 6 0 13 5 16 10 3 6 -1 10 -9 10 -9 0
-16 -4 -16 -10z"/>
<path d="M2920 1170 c0 -5 6 -10 14 -10 8 0 18 5 21 10 3 6 -3 10 -14 10 -12
0 -21 -4 -21 -10z"/>
<path d="M3050 1210 c0 -5 5 -10 10 -10 6 0 10 5 10 10 0 6 -4 10 -10 10 -5 0
-10 -4 -10 -10z"/>
<path d="M3420 1190 c0 -33 11 -38 30 -15 15 18 6 45 -15 45 -10 0 -15 -10
-15 -30z"/>
</g>
</svg>
